<svg xmlns="http://www.w3.org/2000/svg" viewBox="0 0 40 40" xmlns:xlink="http://www.w3.org/1999/xlink">
    <defs>
        <style>
            .white-cdc-1 {
                fill: #fff;
            }
        </style>
    </defs>
    <title>white_CDC-tv</title>
    <path class="white-cdc-1" d="M29.08,32.81H21.67a1.69,1.69,0,0,1-.16-.74V30H18.44v2.14a1.5,1.5,0,0,1-.16.69H10.85L8.48,34.25v.33h23v-.33Z"/>
    <path class="white-cdc-1" d="M9.88,23.67c-3.82,0-6.42-2.35-6.42-6.17a6.2,6.2,0,0,1,6.45-6.33,7,7,0,0,1,2.88.58v1.83A3.37,3.37,0,0,0,10,12.08c-2.3,0-3.61,2.11-3.61,5.16,0,3.2,1.22,5.49,3.85,5.49a4.38,4.38,0,0,0,2.6-1l.43,1A5.13,5.13,0,0,1,9.88,23.67Z"/>
    <path class="white-cdc-1" d="M22.37,17.43c0,4.72-2.91,5.05-5.16,5.05V12.3C19.52,12.3,22.37,12.58,22.37,17.43Zm-3,6a5.69,5.69,0,0,0,5.86-6.06c0-4.9-3.51-6-6.16-6H14.65V23.44Z"/>
    <path class="white-cdc-1" d="M33,23.67c-3.81,0-6.41-2.35-6.41-6.17a6.19,6.19,0,0,1,6.45-6.33,7,7,0,0,1,2.87.58v1.83a3.37,3.37,0,0,0-2.84-1.5c-2.3,0-3.6,2.11-3.6,5.16,0,3.2,1.21,5.49,3.85,5.49a4.35,4.35,0,0,0,2.59-1l.44,1A5.17,5.17,0,0,1,33,23.67Z"/>
    <path class="white-cdc-1" d="M39.1,5.87H.81a.35.35,0,0,0-.35.35V29.85a.35.35,0,0,0,.35.35H39.1a.36.36,0,0,0,.36-.35V6.22A.36.36,0,0,0,39.1,5.87ZM37.55,28.56H2.37v-21H37.55Z"/>
</svg>
