<svg xmlns="http://www.w3.org/2000/svg" viewBox="0 0 40 40" xmlns:xlink="http://www.w3.org/1999/xlink">
    <defs>
        <style>
            .white_FB-1 {
                fill: #fff;
            }
        </style>
    </defs>
    <title>white_facebook</title>
    <path class="white_FB-1" d="M31.67,2.73H8.33A5.85,5.85,0,0,0,2.5,8.56V31.89a5.86,5.86,0,0,0,5.83,5.84H21.12V24.83H16.67V19.68h4.45v-3.8c0-4.42,2.7-6.82,6.63-6.82a34,34,0,0,1,4,.21v4.61H29c-2.14,0-2.56,1-2.56,2.51v3.29h5.11l-.67,5.15H26.44v12.9h5.23a5.85,5.85,0,0,0,5.83-5.84V8.56A5.84,5.84,0,0,0,31.67,2.73Z"/>
</svg>