<svg xmlns="http://www.w3.org/2000/svg" viewBox="0 0 40 40" xmlns:xlink="http://www.w3.org/1999/xlink">
    <defs>
        <style>
            .white_YT-1 {
                fill: #fff;
            }
        </style>
    </defs>
    <title>white_YT</title>
    <path class="white_YT-1" d="M37.25,11.51A4.56,4.56,0,0,0,34.07,8.3C31.26,7.55,20,7.55,20,7.55s-11.26,0-14.06.75a4.55,4.55,0,0,0-3.19,3.21C2,14.33,2,20.23,2,20.23s0,5.89.75,8.72a4.52,4.52,0,0,0,3.19,3.2c2.8.76,14.06.76,14.06.76s11.26,0,14.07-.76A4.53,4.53,0,0,0,37.25,29c.75-2.83.75-8.72.75-8.72S38,14.33,37.25,11.51ZM16.32,25.58V14.87l9.41,5.36Z" />
</svg>