<svg xmlns="http://www.w3.org/2000/svg" viewBox="0 0 40 40" xmlns:xlink="http://www.w3.org/1999/xlink">
    <defs>
        <style>
            .white_RSS-1 {
                fill: #fff;
            }
        </style>
    </defs>
    <title>white_RSS</title>
    <path class="white_RSS-1" d="M36,35.77a1.39,1.39,0,0,1-1.05.46H31.73a1.45,1.45,0,0,1-1.45-1.37A26,26,0,0,0,5.81,10.36,1.44,1.44,0,0,1,4.44,8.93V5.68A1.47,1.47,0,0,1,5.89,4.23H6A32,32,0,0,1,27,13.64,32,32,0,0,1,36.44,34.7,1.37,1.37,0,0,1,36,35.77Zm-11.62,0a1.36,1.36,0,0,1-1.06.48H20.28a1.44,1.44,0,0,1-1.43-1.32A14.55,14.55,0,0,0,5.76,21.82a1.44,1.44,0,0,1-1.32-1.43V17.32a1.38,1.38,0,0,1,.48-1.07,1.39,1.39,0,0,1,1-.39H6a20.41,20.41,0,0,1,12.84,6A20.45,20.45,0,0,1,24.8,34.66,1.42,1.42,0,0,1,24.41,35.75ZM8.8,36.23a4.37,4.37,0,1,1,4.37-4.37A4.37,4.37,0,0,1,8.8,36.23Z" />
</svg>