<svg xmlns="http://www.w3.org/2000/svg" viewBox="0 0 40 40" xmlns:xlink="http://www.w3.org/1999/xlink">
    <defs>
        <style>
            .white_syndication-1 {
                fill: #fff;
            }
        </style>
    </defs>
    <title>white_syndication</title>
    <polygon class="white_syndication-1" points="19.82 19.69 4.91 25.73 12.67 26.82 13.84 34.49 19.82 19.69" />
    <path class="white_syndication-1" d="M13.64,20l-.29,0a1.34,1.34,0,0,1-1-1.58A7.72,7.72,0,0,1,16.51,13a1.33,1.33,0,1,1,1.17,2.39,5.12,5.12,0,0,0-2.74,3.47A1.33,1.33,0,0,1,13.64,20Z" />
    <path class="white_syndication-1" d="M20.82,27.61A1.34,1.34,0,0,1,20.63,25a5,5,0,0,0,3.82-2.82,1.34,1.34,0,0,1,1.79-.63,1.33,1.33,0,0,1,.63,1.77A7.7,7.7,0,0,1,21,27.59Z" />
    <path class="white_syndication-1" d="M26,19.47a1.35,1.35,0,0,1-1.29-.95,5,5,0,0,0-3.28-3.34,1.34,1.34,0,1,1,.84-2.54,7.73,7.73,0,0,1,5,5.11,1.34,1.34,0,0,1-.9,1.67A1.73,1.73,0,0,1,26,19.47Z" />
    <path class="white_syndication-1" d="M8.1,19.33l-.23,0a1.34,1.34,0,0,1-1.1-1.54,13.1,13.1,0,0,1,1.6-4.43,13.32,13.32,0,0,1,7.19-5.91A1.34,1.34,0,1,1,16.43,10a10.66,10.66,0,0,0-5.75,4.71,10.82,10.82,0,0,0-1.27,3.54A1.34,1.34,0,0,1,8.1,19.33Z" />
    <path class="white_syndication-1" d="M21.4,33.13a1.34,1.34,0,0,1-.17-2.66,10.57,10.57,0,0,0,7.85-5.21,12.26,12.26,0,0,0,.69-1.41,1.33,1.33,0,1,1,2.48,1,13.32,13.32,0,0,1-10.67,8.29Z" />
    <path class="white_syndication-1" d="M31.5,18.49a1.34,1.34,0,0,1-1.3-1,10.48,10.48,0,0,0-5-6.67,10.25,10.25,0,0,0-2.47-1,1.34,1.34,0,0,1,.72-2.58,13.7,13.7,0,0,1,3.09,1.3,13.13,13.13,0,0,1,6.27,8.35,1.33,1.33,0,0,1-1,1.61A1.87,1.87,0,0,1,31.5,18.49Z" />
    <path class="white_syndication-1" d="M3.08,18.62H2.87a1.33,1.33,0,0,1-1.11-1.53A18.32,18.32,0,0,1,13.37,2.86a1.34,1.34,0,1,1,1,2.5,15.74,15.74,0,0,0-8,6.79,15.24,15.24,0,0,0-1.9,5.35A1.34,1.34,0,0,1,3.08,18.62Z" />
    <path class="white_syndication-1" d="M21.07,38.23A1.34,1.34,0,0,1,21,35.56a15.65,15.65,0,0,0,12.47-7.78,15.21,15.21,0,0,0,1-1.94,1.35,1.35,0,0,1,1.74-.73,1.33,1.33,0,0,1,.73,1.74,17.64,17.64,0,0,1-1.11,2.27,18.33,18.33,0,0,1-14.61,9.1Z" />
    <path class="white_syndication-1" d="M36.4,17.27a1.35,1.35,0,0,1-1.3-1,15.48,15.48,0,0,0-7.38-9.82,15.86,15.86,0,0,0-3.84-1.58,1.34,1.34,0,0,1-1-1.63,1.36,1.36,0,0,1,1.64-1,19,19,0,0,1,4.5,1.85,18.16,18.16,0,0,1,8.65,11.5,1.34,1.34,0,0,1-1,1.61A1.12,1.12,0,0,1,36.4,17.27Z" />
</svg>