<svg xmlns="http://www.w3.org/2000/svg" viewBox="0 0 40 40" xmlns:xlink="http://www.w3.org/1999/xlink">
    <defs>
        <style>
            .white_IG-1 {
                fill: #fff;
            }
        </style>
    </defs>
    <title>white_IG</title>
    <path class="white_IG-1" d="M20,5.47c4.81,0,5.38,0,7.27.11a9.93,9.93,0,0,1,3.35.62,5.48,5.48,0,0,1,2.07,1.34A5.48,5.48,0,0,1,34,9.61,9.91,9.91,0,0,1,34.65,13c.09,1.9.11,2.47.11,7.28s0,5.37-.11,7.27A9.79,9.79,0,0,1,34,30.84a5.48,5.48,0,0,1-1.34,2.07,5.63,5.63,0,0,1-2.07,1.35,9.93,9.93,0,0,1-3.35.62c-1.89.09-2.46.1-7.27.1s-5.38,0-7.27-.1a9.93,9.93,0,0,1-3.35-.62,5.63,5.63,0,0,1-2.07-1.35A5.48,5.48,0,0,1,6,30.84a9.79,9.79,0,0,1-.62-3.34c-.09-1.9-.11-2.47-.11-7.27s0-5.38.11-7.28A9.91,9.91,0,0,1,6,9.61,5.48,5.48,0,0,1,7.31,7.54,5.48,5.48,0,0,1,9.38,6.2a9.93,9.93,0,0,1,3.35-.62c1.89-.09,2.46-.11,7.27-.11m0-3.24c-4.89,0-5.5,0-7.42.11a13.12,13.12,0,0,0-4.37.83A8.88,8.88,0,0,0,5,5.25,8.79,8.79,0,0,0,2.94,8.44a13.38,13.38,0,0,0-.83,4.37C2,14.73,2,15.34,2,20.23s0,5.5.11,7.42A13.49,13.49,0,0,0,2.94,32a9.18,9.18,0,0,0,5.27,5.26,13.1,13.1,0,0,0,4.37.84c1.92.09,2.53.11,7.42.11s5.5,0,7.42-.11a13.1,13.1,0,0,0,4.37-.84A9.18,9.18,0,0,0,37.06,32a13.49,13.49,0,0,0,.83-4.37c.09-1.92.11-2.53.11-7.42s0-5.5-.11-7.42a13.38,13.38,0,0,0-.83-4.37,9.24,9.24,0,0,0-5.27-5.27,13.12,13.12,0,0,0-4.37-.83c-1.92-.09-2.53-.11-7.42-.11Z" />
    <path class="white_IG-1" d="M20,11a9.25,9.25,0,1,0,9.24,9.25A9.25,9.25,0,0,0,20,11Zm0,15.25a6,6,0,1,1,6-6A6,6,0,0,1,20,26.23Z" />
    <circle class="white_IG-1" cx="29.61" cy="10.62" r="2.16" />
</svg>
