<svg xmlns="http://www.w3.org/2000/svg" viewBox="0 0 40 40" xmlns:xlink="http://www.w3.org/1999/xlink">
    <defs>
        <style>
            .white_email-1 {
                fill: #fff;
            }
        </style>
    </defs>
    <title>white_email</title>
    <g id="email-1">
        <path class="white_email-1" d="M21.17,20.35a2,2,0,0,1-2.34,0L3.19,7.67c-.64-.52-.49-.94.33-.94h33c.82,0,1,.42.33.94Zm-10.32-.68a1.4,1.4,0,0,0-.15-2.05L3.17,11.51C2.52,11,2,11.25,2,12.07V27.82c0,.83.46,1,1,.4ZM29.3,17.62a1.4,1.4,0,0,0-.15,2.05L37,28.22c.55.61,1,.43,1-.4V12.07c0-.82-.52-1.07-1.17-.56Zm-2.48,3.94a1.62,1.62,0,0,0-2.18-.16l-3.47,2.81a2,2,0,0,1-2.34,0L15.36,21.4a1.62,1.62,0,0,0-2.18.16L3.05,32.62c-.56.61-.34,1.11.48,1.11H36.47c.82,0,1-.5.48-1.11Z"/>
    </g>
</svg>